<svg width="220" height="14" viewBox="0 0 220 14" fill="none" xmlns="http://www.w3.org/2000/svg">
<path d="M7.70087 7.8418C7.63251 8.46615 7.45249 9.02897 7.16083 9.53027C6.86916 10.027 6.45673 10.4189 5.92352 10.7061C5.39032 10.9932 4.72268 11.1367 3.92059 11.1367C3.1413 11.1367 2.45998 10.9476 1.87665 10.5693C1.29331 10.1865 0.839864 9.64876 0.516296 8.95605C0.192729 8.26335 0.0309448 7.45443 0.0309448 6.5293V5.52441C0.0309448 4.59473 0.192729 3.78581 0.516296 3.09766C0.844421 2.40495 1.30927 1.86719 1.91083 1.48438C2.51239 1.10156 3.22333 0.910156 4.04364 0.910156C4.79559 0.910156 5.43134 1.05143 5.95087 1.33398C6.4704 1.61198 6.87372 2.00163 7.16083 2.50293C7.45249 3.00423 7.63251 3.58301 7.70087 4.23926H6.37469C6.27443 3.54199 6.05113 2.99284 5.70477 2.5918C5.36298 2.1862 4.80927 1.9834 4.04364 1.9834C3.45575 1.9834 2.96356 2.13151 2.56708 2.42773C2.17059 2.7194 1.86981 3.12956 1.66473 3.6582C1.46421 4.18685 1.36395 4.80436 1.36395 5.51074V6.5293C1.36395 7.18099 1.4551 7.77572 1.63739 8.31348C1.81968 8.84668 2.09768 9.27279 2.47137 9.5918C2.84963 9.91081 3.3327 10.0703 3.92059 10.0703C4.48114 10.0703 4.92548 9.98145 5.2536 9.80371C5.58628 9.62598 5.83693 9.37077 6.00555 9.03809C6.17873 8.7054 6.30178 8.30664 6.37469 7.8418H7.70087ZM8.96552 7.22656C8.96552 6.51107 9.10223 5.87077 9.37567 5.30566C9.64911 4.74056 10.0365 4.29395 10.5378 3.96582C11.0391 3.63314 11.6338 3.4668 12.322 3.4668C13.0192 3.4668 13.6208 3.63314 14.1266 3.96582C14.6325 4.29395 15.0199 4.74056 15.2888 5.30566C15.5622 5.87077 15.6989 6.51107 15.6989 7.22656V7.38379C15.6989 8.09473 15.5622 8.73503 15.2888 9.30469C15.0199 9.86979 14.6325 10.3164 14.1266 10.6445C13.6253 10.9727 13.0283 11.1367 12.3356 11.1367C11.6429 11.1367 11.0436 10.9727 10.5378 10.6445C10.0365 10.3164 9.64911 9.86979 9.37567 9.30469C9.10223 8.73503 8.96552 8.09473 8.96552 7.38379V7.22656ZM10.2438 7.38379C10.2438 7.87142 10.3213 8.32259 10.4763 8.7373C10.6312 9.15202 10.8613 9.4847 11.1667 9.73535C11.4766 9.986 11.8662 10.1113 12.3356 10.1113C12.8005 10.1113 13.1856 9.986 13.4909 9.73535C13.8008 9.4847 14.0332 9.15202 14.1882 8.7373C14.3431 8.32259 14.4206 7.87142 14.4206 7.38379V7.22656C14.4206 6.73893 14.3431 6.28776 14.1882 5.87305C14.0332 5.45833 13.8008 5.12565 13.4909 4.875C13.181 4.61979 12.7914 4.49219 12.322 4.49219C11.8617 4.49219 11.4766 4.61979 11.1667 4.875C10.8568 5.12565 10.6244 5.45833 10.4694 5.87305C10.319 6.28776 10.2438 6.73893 10.2438 7.22656V7.38379ZM18.57 13.8438H17.2917V3.60352H18.4538L18.57 5.02539V13.8438ZM23.5466 7.38379C23.5466 8.10384 23.4349 8.74642 23.2116 9.31152C22.9883 9.87663 22.6625 10.3232 22.2341 10.6514C21.8102 10.9749 21.293 11.1367 20.6823 11.1367C20.0488 11.1367 19.5179 11 19.0895 10.7266C18.6612 10.4531 18.3262 10.0658 18.0847 9.56445C17.8431 9.05859 17.6859 8.46159 17.613 7.77344V6.98047C17.6859 6.25586 17.8431 5.63151 18.0847 5.10742C18.3307 4.58333 18.6657 4.18001 19.0895 3.89746C19.5179 3.61035 20.042 3.4668 20.6618 3.4668C21.2816 3.4668 21.8057 3.62402 22.2341 3.93848C22.6625 4.25293 22.9883 4.69499 23.2116 5.26465C23.4349 5.82975 23.5466 6.48828 23.5466 7.24023V7.38379ZM22.2682 7.24023C22.2682 6.74805 22.1976 6.29688 22.0563 5.88672C21.9196 5.47201 21.7031 5.1416 21.4069 4.89551C21.1153 4.64941 20.7393 4.52637 20.279 4.52637C19.9645 4.52637 19.6911 4.58105 19.4587 4.69043C19.2263 4.7998 19.028 4.94792 18.864 5.13477C18.6999 5.31706 18.5655 5.52669 18.4606 5.76367C18.3604 5.99609 18.2852 6.23763 18.235 6.48828V8.27246C18.3262 8.59147 18.4515 8.89225 18.611 9.1748C18.7751 9.4528 18.9916 9.67839 19.2604 9.85156C19.5339 10.0247 19.878 10.1113 20.2927 10.1113C20.7484 10.1113 21.1221 9.986 21.4138 9.73535C21.7054 9.4847 21.9196 9.1543 22.0563 8.74414C22.1976 8.32943 22.2682 7.87598 22.2682 7.38379V7.24023ZM29.2888 3.60352H30.6491L27.6823 12.1416C27.614 12.3239 27.5228 12.5199 27.4089 12.7295C27.2995 12.9437 27.1582 13.1465 26.985 13.3379C26.8164 13.5293 26.6091 13.6842 26.363 13.8027C26.1169 13.9258 25.8252 13.9873 25.488 13.9873C25.4196 13.9873 25.3376 13.9805 25.2419 13.9668C25.1462 13.9531 25.055 13.9372 24.9684 13.9189C24.8819 13.9053 24.8158 13.8916 24.7702 13.8779V12.8594C24.8067 12.8639 24.8636 12.8708 24.9411 12.8799C25.0231 12.889 25.0801 12.8936 25.112 12.8936C25.5404 12.8936 25.8753 12.8047 26.1169 12.627C26.3584 12.4492 26.5544 12.1325 26.7048 11.6768L27.2311 10.2344L29.2888 3.60352ZM27.6481 9.35254L27.9763 10.6855L27.0602 11.1436L24.3464 3.60352H25.7409L27.6481 9.35254ZM33.0622 11H31.7839V3.60352H33.028L33.0622 4.76562V11ZM35.3659 4.73145C35.2565 4.70866 35.154 4.69499 35.0583 4.69043C34.9671 4.68132 34.8623 4.67676 34.7438 4.67676C34.3565 4.67676 34.0283 4.75651 33.7595 4.91602C33.4951 5.07552 33.2901 5.29655 33.1442 5.5791C32.9984 5.8571 32.9072 6.17611 32.8708 6.53613L32.5085 6.74121C32.5085 6.14421 32.5882 5.59961 32.7477 5.10742C32.9072 4.61068 33.1556 4.21419 33.4929 3.91797C33.8347 3.61719 34.2722 3.4668 34.8054 3.4668C34.8919 3.4668 34.9945 3.47819 35.113 3.50098C35.236 3.51921 35.3203 3.53971 35.3659 3.5625V4.73145ZM37.9157 11H36.6374V3.60352H37.9157V11ZM36.5417 1.63477C36.5417 1.43424 36.6032 1.26335 36.7263 1.12207C36.8539 0.980794 37.0407 0.910156 37.2868 0.910156C37.5329 0.910156 37.7197 0.980794 37.8474 1.12207C37.9795 1.26335 38.0456 1.43424 38.0456 1.63477C38.0456 1.83073 37.9795 1.99935 37.8474 2.14062C37.7197 2.27734 37.5329 2.3457 37.2868 2.3457C37.0407 2.3457 36.8539 2.27734 36.7263 2.14062C36.6032 1.99935 36.5417 1.83073 36.5417 1.63477ZM45.8864 3.60352V10.8428C45.8864 11.4945 45.752 12.0505 45.4831 12.5107C45.2188 12.971 44.8496 13.3197 44.3757 13.5566C43.9063 13.7982 43.364 13.9189 42.7487 13.9189C42.4935 13.9189 42.1927 13.8779 41.8464 13.7959C41.5046 13.7184 41.1673 13.584 40.8347 13.3926C40.5065 13.2057 40.2308 12.9528 40.0075 12.6338L40.6706 11.8887C40.9805 12.2624 41.3041 12.5221 41.6413 12.668C41.9831 12.8184 42.3203 12.8936 42.653 12.8936C43.25 12.8936 43.724 12.7227 44.0749 12.3809C44.4304 12.0436 44.6081 11.5514 44.6081 10.9043V5.23047L44.7243 3.60352H45.8864ZM39.6315 7.24023C39.6315 6.48828 39.75 5.82975 39.987 5.26465C40.224 4.69499 40.5612 4.25293 40.9987 3.93848C41.4362 3.62402 41.9557 3.4668 42.5573 3.4668C43.0222 3.4668 43.4278 3.54883 43.7741 3.71289C44.125 3.8724 44.4212 4.10482 44.6628 4.41016C44.9089 4.71549 45.1026 5.08464 45.2438 5.51758C45.3897 5.95052 45.4899 6.43815 45.5446 6.98047V7.64355C45.4763 8.35905 45.3236 8.97884 45.0866 9.50293C44.8542 10.0225 44.5283 10.4258 44.1091 10.7129C43.6898 10.9954 43.168 11.1367 42.5436 11.1367C41.9512 11.1367 41.4362 10.9749 40.9987 10.6514C40.5658 10.3232 40.2285 9.87663 39.987 9.31152C39.75 8.74642 39.6315 8.10384 39.6315 7.38379V7.24023ZM40.9099 7.38379C40.9099 7.87598 40.9759 8.32487 41.1081 8.73047C41.2448 9.13607 41.4567 9.46191 41.7438 9.70801C42.0309 9.94954 42.4024 10.0703 42.8581 10.0703C43.2774 10.0703 43.6214 9.98145 43.8903 9.80371C44.1592 9.62598 44.3757 9.39128 44.5397 9.09961C44.7038 8.80794 44.8314 8.49121 44.9225 8.14941V6.48828C44.8679 6.23763 44.7904 5.99609 44.6901 5.76367C44.5899 5.52669 44.4577 5.31706 44.2936 5.13477C44.1296 4.94792 43.9291 4.7998 43.6921 4.69043C43.4597 4.58105 43.1862 4.52637 42.8718 4.52637C42.4115 4.52637 42.0355 4.64941 41.7438 4.89551C41.4567 5.1416 41.2448 5.47201 41.1081 5.88672C40.9759 6.29688 40.9099 6.74805 40.9099 7.24023V7.38379ZM49.072 11H47.7936V0.5H49.072V11ZM48.238 6.99414C48.2471 6.31966 48.377 5.7181 48.6276 5.18945C48.8783 4.65625 49.2269 4.23698 49.6735 3.93164C50.1247 3.62174 50.6488 3.4668 51.2458 3.4668C51.7334 3.4668 52.1527 3.55794 52.5036 3.74023C52.8591 3.91797 53.1325 4.2028 53.3239 4.59473C53.5199 4.98665 53.6179 5.50618 53.6179 6.15332V11H52.3395V6.13965C52.3395 5.75228 52.2826 5.4401 52.1686 5.20312C52.0593 4.96615 51.8952 4.79525 51.6765 4.69043C51.4577 4.58105 51.1888 4.52637 50.8698 4.52637C50.5554 4.52637 50.2705 4.59245 50.0153 4.72461C49.7601 4.85677 49.5391 5.03906 49.3522 5.27148C49.1654 5.50391 49.0218 5.77051 48.9216 6.07129C48.8213 6.36751 48.7712 6.68197 48.7712 7.01465L48.238 6.99414ZM58.6149 4.56738H54.6091V3.60352H58.6149V4.56738ZM57.2341 1.80566V9.16797C57.2341 9.42318 57.2728 9.61458 57.3503 9.74219C57.4278 9.86979 57.528 9.9541 57.6511 9.99512C57.7741 10.0361 57.9063 10.0566 58.0475 10.0566C58.1524 10.0566 58.2617 10.0475 58.3757 10.0293C58.4942 10.0111 58.5807 9.99512 58.6354 9.98145L58.6423 11C58.542 11.0319 58.4099 11.0615 58.2458 11.0889C58.0863 11.1208 57.8926 11.1367 57.6647 11.1367C57.3548 11.1367 57.07 11.0752 56.8102 10.9521C56.5505 10.8291 56.3431 10.624 56.1882 10.3369C56.0332 10.0452 55.9557 9.65332 55.9557 9.16113V1.80566H57.2341ZM70.2497 6.91211C70.2497 7.6276 70.0469 8.16536 69.6413 8.52539C69.2357 8.88086 68.6843 9.05859 67.987 9.05859C67.2578 9.05859 66.6791 8.81478 66.2507 8.32715C65.8268 7.83496 65.6149 7.19694 65.6149 6.41309V5.62695C65.6149 4.8431 65.8268 4.20736 66.2507 3.71973C66.6791 3.22754 67.2578 2.98145 67.987 2.98145C68.6843 2.98145 69.2357 3.15918 69.6413 3.51465C70.0515 3.87012 70.2565 4.4056 70.2565 5.12109H69.2585C69.2585 4.66992 69.1491 4.34635 68.9304 4.15039C68.7162 3.94987 68.4017 3.84961 67.987 3.84961C67.6862 3.84961 67.4333 3.92708 67.2282 4.08203C67.0231 4.23242 66.8682 4.43978 66.7634 4.7041C66.6585 4.96842 66.6061 5.27376 66.6061 5.62012V6.41309C66.6061 6.93717 66.7224 7.36328 66.9548 7.69141C67.1918 8.01953 67.5358 8.18359 67.987 8.18359C68.4017 8.18359 68.7162 8.08789 68.9304 7.89648C69.1446 7.70052 69.2516 7.3724 69.2516 6.91211H70.2497ZM64.0153 6.0166C64.0153 6.62272 64.1201 7.18783 64.3298 7.71191C64.5394 8.236 64.8311 8.69401 65.2048 9.08594C65.5785 9.47786 66.0091 9.7832 66.4968 10.002C66.989 10.2207 67.5153 10.3301 68.0759 10.3301C68.6364 10.3301 69.1605 10.2207 69.6481 10.002C70.1403 9.7832 70.571 9.47786 70.9401 9.08594C71.3138 8.69401 71.6055 8.236 71.8151 7.71191C72.0248 7.18783 72.1296 6.62272 72.1296 6.0166C72.1296 5.40592 72.0248 4.84082 71.8151 4.32129C71.6055 3.80176 71.3138 3.34831 70.9401 2.96094C70.571 2.56901 70.1403 2.26595 69.6481 2.05176C69.1605 1.83301 68.6364 1.72363 68.0759 1.72363C67.5153 1.72363 66.989 1.83301 66.4968 2.05176C66.0091 2.26595 65.5785 2.56901 65.2048 2.96094C64.8311 3.34831 64.5394 3.80176 64.3298 4.32129C64.1201 4.84082 64.0153 5.40592 64.0153 6.0166ZM63.2224 6.0166C63.2224 5.29199 63.3477 4.61979 63.5983 4C63.849 3.38021 64.1976 2.84017 64.6442 2.37988C65.0908 1.91504 65.6058 1.55501 66.1891 1.2998C66.777 1.04004 67.4059 0.910156 68.0759 0.910156C68.7458 0.910156 69.3724 1.04004 69.9557 1.2998C70.5436 1.55501 71.0586 1.91504 71.5007 2.37988C71.9473 2.84017 72.2959 3.38021 72.5466 4C72.7972 4.61979 72.9225 5.29199 72.9225 6.0166C72.9225 6.74121 72.7972 7.41341 72.5466 8.0332C72.2959 8.65299 71.9473 9.19759 71.5007 9.66699C71.0586 10.1318 70.5436 10.4941 69.9557 10.7539C69.3724 11.0137 68.7458 11.1436 68.0759 11.1436C67.4059 11.1436 66.777 11.0137 66.1891 10.7539C65.6058 10.4941 65.0908 10.1318 64.6442 9.66699C64.1976 9.19759 63.849 8.65299 63.5983 8.0332C63.3477 7.41341 63.2224 6.74121 63.2224 6.0166ZM80.9616 11H74.4333V10.0977L77.694 6.46777C78.0996 6.02116 78.4118 5.6429 78.6306 5.33301C78.8539 5.01855 79.0088 4.736 79.0954 4.48535C79.182 4.2347 79.2253 3.97949 79.2253 3.71973C79.2253 3.22754 79.0749 2.80827 78.7741 2.46191C78.4779 2.111 78.0541 1.93555 77.5026 1.93555C77.056 1.93555 76.6846 2.02214 76.3884 2.19531C76.0967 2.36849 75.878 2.60775 75.7321 2.91309C75.5908 3.21842 75.5202 3.57161 75.5202 3.97266H74.2419C74.2419 3.41211 74.3649 2.89941 74.611 2.43457C74.8571 1.96973 75.2217 1.60059 75.7048 1.32715C76.1924 1.04915 76.7917 0.910156 77.5026 0.910156C78.4414 0.910156 79.1752 1.15397 79.7038 1.6416C80.237 2.12923 80.5036 2.77181 80.5036 3.56934C80.5036 3.96126 80.4193 4.35547 80.2507 4.75195C80.0821 5.14844 79.8565 5.54264 79.5739 5.93457C79.2914 6.32194 78.9792 6.7002 78.6374 7.06934L75.9714 9.97461H80.9616V11ZM88.5563 6.75488C88.5563 7.83496 88.4287 8.69629 88.1735 9.33887C87.9229 9.97689 87.5628 10.4372 87.0934 10.7197C86.624 10.9977 86.0681 11.1367 85.4255 11.1367C84.792 11.1367 84.2383 10.9977 83.7643 10.7197C83.2904 10.4372 82.9212 9.97689 82.6569 9.33887C82.3972 8.69629 82.2673 7.83496 82.2673 6.75488V5.23047C82.2673 4.14583 82.3949 3.28906 82.6501 2.66016C82.9099 2.03125 83.2744 1.58236 83.7438 1.31348C84.2178 1.0446 84.7738 0.910156 85.4118 0.910156C86.0544 0.910156 86.6104 1.0446 87.0798 1.31348C87.5492 1.58236 87.9115 2.03125 88.1667 2.66016C88.4265 3.28906 88.5563 4.14583 88.5563 5.23047V6.75488ZM87.278 5.01855C87.278 4.27116 87.2074 3.67188 87.0661 3.2207C86.9248 2.76953 86.7152 2.44368 86.4372 2.24316C86.1592 2.03809 85.8174 1.93555 85.4118 1.93555C85.0108 1.93555 84.6712 2.03809 84.3932 2.24316C84.1153 2.44368 83.9033 2.76953 83.7575 3.2207C83.6162 3.67188 83.5456 4.27116 83.5456 5.01855V6.95312C83.5456 7.69596 83.6185 8.2998 83.7643 8.76465C83.9102 9.22949 84.1221 9.57129 84.4001 9.79004C84.6826 10.0042 85.0244 10.1113 85.4255 10.1113C85.8356 10.1113 86.1774 10.0042 86.4509 9.79004C86.7243 9.57129 86.9294 9.22949 87.0661 8.76465C87.2074 8.2998 87.278 7.69596 87.278 6.95312V5.01855ZM96.7116 11H90.1833V10.0977L93.444 6.46777C93.8496 6.02116 94.1618 5.6429 94.3806 5.33301C94.6039 5.01855 94.7588 4.736 94.8454 4.48535C94.932 4.2347 94.9753 3.97949 94.9753 3.71973C94.9753 3.22754 94.8249 2.80827 94.5241 2.46191C94.2279 2.111 93.8041 1.93555 93.2526 1.93555C92.806 1.93555 92.4346 2.02214 92.1384 2.19531C91.8467 2.36849 91.628 2.60775 91.4821 2.91309C91.3408 3.21842 91.2702 3.57161 91.2702 3.97266H89.9919C89.9919 3.41211 90.1149 2.89941 90.361 2.43457C90.6071 1.96973 90.9717 1.60059 91.4548 1.32715C91.9424 1.04915 92.5417 0.910156 93.2526 0.910156C94.1914 0.910156 94.9252 1.15397 95.4538 1.6416C95.987 2.12923 96.2536 2.77181 96.2536 3.56934C96.2536 3.96126 96.1693 4.35547 96.0007 4.75195C95.8321 5.14844 95.6065 5.54264 95.3239 5.93457C95.0414 6.32194 94.7292 6.7002 94.3874 7.06934L91.7214 9.97461H96.7116V11ZM104.306 6.75488C104.306 7.83496 104.179 8.69629 103.924 9.33887C103.673 9.97689 103.313 10.4372 102.843 10.7197C102.374 10.9977 101.818 11.1367 101.175 11.1367C100.542 11.1367 99.9883 10.9977 99.5143 10.7197C99.0404 10.4372 98.6712 9.97689 98.4069 9.33887C98.1472 8.69629 98.0173 7.83496 98.0173 6.75488V5.23047C98.0173 4.14583 98.1449 3.28906 98.4001 2.66016C98.6599 2.03125 99.0244 1.58236 99.4938 1.31348C99.9678 1.0446 100.524 0.910156 101.162 0.910156C101.804 0.910156 102.36 1.0446 102.83 1.31348C103.299 1.58236 103.661 2.03125 103.917 2.66016C104.176 3.28906 104.306 4.14583 104.306 5.23047V6.75488ZM103.028 5.01855C103.028 4.27116 102.957 3.67188 102.816 3.2207C102.675 2.76953 102.465 2.44368 102.187 2.24316C101.909 2.03809 101.567 1.93555 101.162 1.93555C100.761 1.93555 100.421 2.03809 100.143 2.24316C99.8653 2.44368 99.6533 2.76953 99.5075 3.2207C99.3662 3.67188 99.2956 4.27116 99.2956 5.01855V6.95312C99.2956 7.69596 99.3685 8.2998 99.5143 8.76465C99.6602 9.22949 99.8721 9.57129 100.15 9.79004C100.433 10.0042 100.774 10.1113 101.175 10.1113C101.586 10.1113 101.927 10.0042 102.201 9.79004C102.474 9.57129 102.679 9.22949 102.816 8.76465C102.957 8.2998 103.028 7.69596 103.028 6.95312V5.01855ZM110.137 11H108.77L112.571 1.04688H113.446L113.425 1.92188L110.137 11ZM112.879 1.92188L112.865 1.04688H113.733L117.541 11H116.18L112.879 1.92188ZM116.016 8.39551H110.418V7.32227H116.016V8.39551ZM120.07 11H118.792V0.5H120.07V11ZM123.474 11H122.196V0.5H123.474V11ZM130.242 11H128.964V3.60352H130.208L130.242 4.76562V11ZM132.546 4.73145C132.436 4.70866 132.334 4.69499 132.238 4.69043C132.147 4.68132 132.042 4.67676 131.924 4.67676C131.536 4.67676 131.208 4.75651 130.939 4.91602C130.675 5.07552 130.47 5.29655 130.324 5.5791C130.178 5.8571 130.087 6.17611 130.05 6.53613L129.688 6.74121C129.688 6.14421 129.768 5.59961 129.927 5.10742C130.087 4.61068 130.335 4.21419 130.673 3.91797C131.014 3.61719 131.452 3.4668 131.985 3.4668C132.072 3.4668 132.174 3.47819 132.293 3.50098C132.416 3.51921 132.5 3.53971 132.546 3.5625V4.73145ZM135.095 11H133.817V3.60352H135.095V11ZM133.721 1.63477C133.721 1.43424 133.783 1.26335 133.906 1.12207C134.034 0.980794 134.22 0.910156 134.466 0.910156C134.713 0.910156 134.899 0.980794 135.027 1.12207C135.159 1.26335 135.225 1.43424 135.225 1.63477C135.225 1.83073 135.159 1.99935 135.027 2.14062C134.899 2.27734 134.713 2.3457 134.466 2.3457C134.22 2.3457 134.034 2.27734 133.906 2.14062C133.783 1.99935 133.721 1.83073 133.721 1.63477ZM143.066 3.60352V10.8428C143.066 11.4945 142.932 12.0505 142.663 12.5107C142.398 12.971 142.029 13.3197 141.555 13.5566C141.086 13.7982 140.544 13.9189 139.928 13.9189C139.673 13.9189 139.372 13.8779 139.026 13.7959C138.684 13.7184 138.347 13.584 138.014 13.3926C137.686 13.2057 137.411 12.9528 137.187 12.6338L137.85 11.8887C138.16 12.2624 138.484 12.5221 138.821 12.668C139.163 12.8184 139.5 12.8936 139.833 12.8936C140.43 12.8936 140.904 12.7227 141.255 12.3809C141.61 12.0436 141.788 11.5514 141.788 10.9043V5.23047L141.904 3.60352H143.066ZM136.811 7.24023C136.811 6.48828 136.93 5.82975 137.167 5.26465C137.404 4.69499 137.741 4.25293 138.178 3.93848C138.616 3.62402 139.135 3.4668 139.737 3.4668C140.202 3.4668 140.607 3.54883 140.954 3.71289C141.305 3.8724 141.601 4.10482 141.842 4.41016C142.089 4.71549 142.282 5.08464 142.424 5.51758C142.569 5.95052 142.67 6.43815 142.724 6.98047V7.64355C142.656 8.35905 142.503 8.97884 142.266 9.50293C142.034 10.0225 141.708 10.4258 141.289 10.7129C140.869 10.9954 140.348 11.1367 139.723 11.1367C139.131 11.1367 138.616 10.9749 138.178 10.6514C137.745 10.3232 137.408 9.87663 137.167 9.31152C136.93 8.74642 136.811 8.10384 136.811 7.38379V7.24023ZM138.09 7.38379C138.09 7.87598 138.156 8.32487 138.288 8.73047C138.424 9.13607 138.636 9.46191 138.924 9.70801C139.211 9.94954 139.582 10.0703 140.038 10.0703C140.457 10.0703 140.801 9.98145 141.07 9.80371C141.339 9.62598 141.555 9.39128 141.719 9.09961C141.883 8.80794 142.011 8.49121 142.102 8.14941V6.48828C142.048 6.23763 141.97 5.99609 141.87 5.76367C141.77 5.52669 141.637 5.31706 141.473 5.13477C141.309 4.94792 141.109 4.7998 140.872 4.69043C140.639 4.58105 140.366 4.52637 140.051 4.52637C139.591 4.52637 139.215 4.64941 138.924 4.89551C138.636 5.1416 138.424 5.47201 138.288 5.88672C138.156 6.29688 138.09 6.74805 138.09 7.24023V7.38379ZM146.252 11H144.973V0.5H146.252V11ZM145.418 6.99414C145.427 6.31966 145.557 5.7181 145.807 5.18945C146.058 4.65625 146.407 4.23698 146.853 3.93164C147.304 3.62174 147.828 3.4668 148.425 3.4668C148.913 3.4668 149.332 3.55794 149.683 3.74023C150.039 3.91797 150.312 4.2028 150.504 4.59473C150.7 4.98665 150.798 5.50618 150.798 6.15332V11H149.519V6.13965C149.519 5.75228 149.462 5.4401 149.348 5.20312C149.239 4.96615 149.075 4.79525 148.856 4.69043C148.637 4.58105 148.369 4.52637 148.049 4.52637C147.735 4.52637 147.45 4.59245 147.195 4.72461C146.94 4.85677 146.719 5.03906 146.532 5.27148C146.345 5.50391 146.202 5.77051 146.101 6.07129C146.001 6.36751 145.951 6.68197 145.951 7.01465L145.418 6.99414ZM155.795 4.56738H151.789V3.60352H155.795V4.56738ZM154.414 1.80566V9.16797C154.414 9.42318 154.452 9.61458 154.53 9.74219C154.607 9.86979 154.708 9.9541 154.831 9.99512C154.954 10.0361 155.086 10.0566 155.227 10.0566C155.332 10.0566 155.441 10.0475 155.555 10.0293C155.674 10.0111 155.76 9.99512 155.815 9.98145L155.822 11C155.722 11.0319 155.59 11.0615 155.425 11.0889C155.266 11.1208 155.072 11.1367 154.844 11.1367C154.535 11.1367 154.25 11.0752 153.99 10.9521C153.73 10.8291 153.523 10.624 153.368 10.3369C153.213 10.0452 153.135 9.65332 153.135 9.16113V1.80566H154.414ZM161.571 9.03809C161.571 8.85579 161.53 8.68717 161.448 8.53223C161.37 8.37272 161.211 8.22917 160.969 8.10156C160.728 7.9694 160.363 7.85319 159.876 7.75293C159.329 7.639 158.855 7.49544 158.454 7.32227C158.057 7.14453 157.75 6.91895 157.531 6.64551C157.317 6.37207 157.21 6.03255 157.21 5.62695C157.21 5.23503 157.321 4.87728 157.545 4.55371C157.772 4.22559 158.091 3.96354 158.502 3.76758C158.916 3.56706 159.399 3.4668 159.951 3.4668C160.543 3.4668 161.049 3.57161 161.468 3.78125C161.892 3.98633 162.216 4.26432 162.439 4.61523C162.662 4.96159 162.774 5.34668 162.774 5.77051H161.496C161.496 5.46517 161.361 5.17578 161.092 4.90234C160.828 4.62891 160.448 4.49219 159.951 4.49219C159.605 4.49219 159.322 4.54688 159.103 4.65625C158.889 4.76107 158.732 4.89779 158.632 5.06641C158.536 5.23047 158.488 5.40365 158.488 5.58594C158.488 5.76823 158.534 5.92773 158.625 6.06445C158.716 6.19661 158.882 6.3151 159.124 6.41992C159.37 6.52474 159.725 6.62956 160.19 6.73438C160.796 6.87109 161.295 7.03516 161.687 7.22656C162.079 7.41797 162.371 7.65267 162.562 7.93066C162.754 8.20866 162.849 8.54818 162.849 8.94922C162.849 9.3776 162.731 9.75814 162.494 10.0908C162.257 10.4189 161.924 10.6764 161.496 10.8633C161.067 11.0456 160.564 11.1367 159.985 11.1367C159.333 11.1367 158.782 11.0205 158.331 10.7881C157.88 10.5557 157.538 10.2572 157.305 9.89258C157.073 9.52344 156.957 9.13379 156.957 8.72363H158.235C158.258 9.06999 158.358 9.3457 158.536 9.55078C158.718 9.7513 158.939 9.89486 159.199 9.98145C159.463 10.068 159.725 10.1113 159.985 10.1113C160.331 10.1113 160.621 10.0658 160.853 9.97461C161.09 9.87891 161.268 9.7513 161.386 9.5918C161.509 9.42773 161.571 9.24316 161.571 9.03809ZM169.248 11H167.969V3.60352H169.214L169.248 4.76562V11ZM171.551 4.73145C171.442 4.70866 171.34 4.69499 171.244 4.69043C171.153 4.68132 171.048 4.67676 170.929 4.67676C170.542 4.67676 170.214 4.75651 169.945 4.91602C169.681 5.07552 169.476 5.29655 169.33 5.5791C169.184 5.8571 169.093 6.17611 169.056 6.53613L168.694 6.74121C168.694 6.14421 168.774 5.59961 168.933 5.10742C169.093 4.61068 169.341 4.21419 169.678 3.91797C170.02 3.61719 170.458 3.4668 170.991 3.4668C171.077 3.4668 171.18 3.47819 171.299 3.50098C171.422 3.51921 171.506 3.53971 171.551 3.5625V4.73145ZM175.79 11.1367C175.102 11.1367 174.502 10.984 173.992 10.6787C173.486 10.3688 173.092 9.94499 172.809 9.40723C172.531 8.86947 172.392 8.25423 172.392 7.56152V7.26758C172.392 6.46549 172.545 5.7819 172.85 5.2168C173.16 4.64714 173.561 4.21419 174.053 3.91797C174.55 3.61719 175.074 3.4668 175.626 3.4668C176.337 3.4668 176.915 3.6263 177.362 3.94531C177.813 4.25977 178.144 4.69043 178.353 5.2373C178.567 5.77962 178.674 6.39486 178.674 7.08301V7.65039H173.151V6.625H177.396V6.5293C177.378 6.20117 177.312 5.88216 177.198 5.57227C177.084 5.25781 176.902 5.00033 176.651 4.7998C176.4 4.59473 176.059 4.49219 175.626 4.49219C175.243 4.49219 174.903 4.60156 174.607 4.82031C174.315 5.03451 174.085 5.34896 173.917 5.76367C173.753 6.17383 173.671 6.67513 173.671 7.26758V7.56152C173.671 8.03092 173.757 8.45931 173.93 8.84668C174.104 9.22949 174.354 9.53711 174.682 9.76953C175.01 9.9974 175.402 10.1113 175.858 10.1113C176.305 10.1113 176.683 10.0202 176.993 9.83789C177.303 9.6556 177.574 9.41178 177.806 9.10645L178.579 9.70801C178.342 10.0726 178 10.403 177.553 10.6992C177.111 10.9909 176.523 11.1367 175.79 11.1367ZM184.458 9.03809C184.458 8.85579 184.417 8.68717 184.335 8.53223C184.257 8.37272 184.098 8.22917 183.856 8.10156C183.615 7.9694 183.25 7.85319 182.762 7.75293C182.216 7.639 181.742 7.49544 181.341 7.32227C180.944 7.14453 180.636 6.91895 180.418 6.64551C180.203 6.37207 180.096 6.03255 180.096 5.62695C180.096 5.23503 180.208 4.87728 180.431 4.55371C180.659 4.22559 180.978 3.96354 181.388 3.76758C181.803 3.56706 182.286 3.4668 182.838 3.4668C183.43 3.4668 183.936 3.57161 184.355 3.78125C184.779 3.98633 185.103 4.26432 185.326 4.61523C185.549 4.96159 185.661 5.34668 185.661 5.77051H184.383C184.383 5.46517 184.248 5.17578 183.979 4.90234C183.715 4.62891 183.334 4.49219 182.838 4.49219C182.491 4.49219 182.209 4.54688 181.99 4.65625C181.776 4.76107 181.619 4.89779 181.518 5.06641C181.423 5.23047 181.375 5.40365 181.375 5.58594C181.375 5.76823 181.42 5.92773 181.511 6.06445C181.603 6.19661 181.769 6.3151 182.01 6.41992C182.257 6.52474 182.612 6.62956 183.077 6.73438C183.683 6.87109 184.182 7.03516 184.574 7.22656C184.966 7.41797 185.258 7.65267 185.449 7.93066C185.64 8.20866 185.736 8.54818 185.736 8.94922C185.736 9.3776 185.618 9.75814 185.381 10.0908C185.144 10.4189 184.811 10.6764 184.383 10.8633C183.954 11.0456 183.451 11.1367 182.872 11.1367C182.22 11.1367 181.669 11.0205 181.217 10.7881C180.766 10.5557 180.424 10.2572 180.192 9.89258C179.96 9.52344 179.843 9.13379 179.843 8.72363H181.122C181.145 9.06999 181.245 9.3457 181.423 9.55078C181.605 9.7513 181.826 9.89486 182.086 9.98145C182.35 10.068 182.612 10.1113 182.872 10.1113C183.218 10.1113 183.508 10.0658 183.74 9.97461C183.977 9.87891 184.155 9.7513 184.273 9.5918C184.396 9.42773 184.458 9.24316 184.458 9.03809ZM190.46 11.1367C189.772 11.1367 189.172 10.984 188.662 10.6787C188.156 10.3688 187.762 9.94499 187.479 9.40723C187.201 8.86947 187.062 8.25423 187.062 7.56152V7.26758C187.062 6.46549 187.215 5.7819 187.52 5.2168C187.83 4.64714 188.231 4.21419 188.723 3.91797C189.22 3.61719 189.744 3.4668 190.296 3.4668C191.007 3.4668 191.585 3.6263 192.032 3.94531C192.483 4.25977 192.813 4.69043 193.023 5.2373C193.237 5.77962 193.344 6.39486 193.344 7.08301V7.65039H187.821V6.625H192.066V6.5293C192.048 6.20117 191.982 5.88216 191.868 5.57227C191.754 5.25781 191.572 5.00033 191.321 4.7998C191.07 4.59473 190.729 4.49219 190.296 4.49219C189.913 4.49219 189.573 4.60156 189.277 4.82031C188.985 5.03451 188.755 5.34896 188.587 5.76367C188.423 6.17383 188.341 6.67513 188.341 7.26758V7.56152C188.341 8.03092 188.427 8.45931 188.6 8.84668C188.773 9.22949 189.024 9.53711 189.352 9.76953C189.68 9.9974 190.072 10.1113 190.528 10.1113C190.975 10.1113 191.353 10.0202 191.663 9.83789C191.973 9.6556 192.244 9.41178 192.476 9.10645L193.249 9.70801C193.012 10.0726 192.67 10.403 192.223 10.6992C191.781 10.9909 191.193 11.1367 190.46 11.1367ZM196.099 11H194.821V3.60352H196.065L196.099 4.76562V11ZM198.403 4.73145C198.294 4.70866 198.191 4.69499 198.095 4.69043C198.004 4.68132 197.899 4.67676 197.781 4.67676C197.394 4.67676 197.065 4.75651 196.797 4.91602C196.532 5.07552 196.327 5.29655 196.181 5.5791C196.036 5.8571 195.944 6.17611 195.908 6.53613L195.546 6.74121C195.546 6.14421 195.625 5.59961 195.785 5.10742C195.944 4.61068 196.193 4.21419 196.53 3.91797C196.872 3.61719 197.309 3.4668 197.842 3.4668C197.929 3.4668 198.032 3.47819 198.15 3.50098C198.273 3.51921 198.357 3.53971 198.403 3.5625V4.73145ZM203.954 3.60352H205.259L202.607 11H201.746L201.944 9.86523L203.954 3.60352ZM202.341 9.89941L202.491 11H201.636L198.957 3.60352H200.262L202.341 9.89941ZM209.559 11.1367C208.871 11.1367 208.272 10.984 207.761 10.6787C207.256 10.3688 206.861 9.94499 206.579 9.40723C206.301 8.86947 206.162 8.25423 206.162 7.56152V7.26758C206.162 6.46549 206.314 5.7819 206.62 5.2168C206.93 4.64714 207.331 4.21419 207.823 3.91797C208.32 3.61719 208.844 3.4668 209.395 3.4668C210.106 3.4668 210.685 3.6263 211.132 3.94531C211.583 4.25977 211.913 4.69043 212.123 5.2373C212.337 5.77962 212.444 6.39486 212.444 7.08301V7.65039H206.921V6.625H211.166V6.5293C211.147 6.20117 211.081 5.88216 210.967 5.57227C210.854 5.25781 210.671 5.00033 210.421 4.7998C210.17 4.59473 209.828 4.49219 209.395 4.49219C209.012 4.49219 208.673 4.60156 208.377 4.82031C208.085 5.03451 207.855 5.34896 207.686 5.76367C207.522 6.17383 207.44 6.67513 207.44 7.26758V7.56152C207.44 8.03092 207.527 8.45931 207.7 8.84668C207.873 9.22949 208.124 9.53711 208.452 9.76953C208.78 9.9974 209.172 10.1113 209.628 10.1113C210.074 10.1113 210.452 10.0202 210.762 9.83789C211.072 9.6556 211.343 9.41178 211.576 9.10645L212.348 9.70801C212.111 10.0726 211.77 10.403 211.323 10.6992C210.881 10.9909 210.293 11.1367 209.559 11.1367ZM218.583 0.5H219.861V11H218.692L218.583 9.56445V0.5ZM213.613 7.24023C213.613 6.48828 213.734 5.82975 213.975 5.26465C214.221 4.69499 214.563 4.25293 215.001 3.93848C215.438 3.62402 215.951 3.4668 216.539 3.4668C217.159 3.4668 217.676 3.61035 218.091 3.89746C218.505 4.18001 218.829 4.58333 219.061 5.10742C219.298 5.63151 219.451 6.25586 219.519 6.98047V7.64355C219.451 8.35905 219.3 8.97884 219.068 9.50293C218.836 10.0225 218.51 10.4258 218.091 10.7129C217.676 10.9954 217.154 11.1367 216.525 11.1367C215.946 11.1367 215.438 10.9749 215.001 10.6514C214.563 10.3232 214.221 9.87663 213.975 9.31152C213.734 8.74642 213.613 8.10384 213.613 7.38379V7.24023ZM214.891 7.38379C214.891 7.87598 214.957 8.32487 215.09 8.73047C215.226 9.13607 215.438 9.46191 215.725 9.70801C216.012 9.94954 216.384 10.0703 216.84 10.0703C217.259 10.0703 217.603 9.98145 217.872 9.80371C218.145 9.62598 218.364 9.39128 218.528 9.09961C218.692 8.80794 218.82 8.49121 218.911 8.14941V6.48828C218.856 6.23763 218.776 5.99609 218.672 5.76367C218.571 5.52669 218.439 5.31706 218.275 5.13477C218.116 4.94792 217.917 4.7998 217.68 4.69043C217.448 4.58105 217.172 4.52637 216.853 4.52637C216.393 4.52637 216.017 4.64941 215.725 4.89551C215.438 5.1416 215.226 5.47201 215.09 5.88672C214.957 6.29688 214.891 6.74805 214.891 7.24023V7.38379Z" fill="#504C4E"/>
</svg>
